<svg width="44" height="44" viewBox="0 0 44 44" fill="none" xmlns="http://www.w3.org/2000/svg">
<g id="Group 32">
<circle id="Ellipse 3" cx="22" cy="22" r="21.5" stroke="#CCCCCC"/>
<g id="Group 31">
<path id="Vector" d="M26.002 25.0826L26.002 25.0825C26.0684 24.9969 26.1529 24.927 26.2494 24.8779C26.3459 24.8288 26.4522 24.8017 26.5604 24.7985C26.6687 24.7953 26.7763 24.8161 26.8756 24.8594C26.9741 24.9024 27.0619 24.9664 27.1329 25.047C27.5188 25.43 27.9033 25.8148 28.2876 26.1996C28.504 26.4162 28.7203 26.6327 28.9369 26.8489L28.8839 26.902L28.9369 26.8489C29.2299 27.1414 29.5235 27.4333 29.8179 27.7244C29.8972 27.7914 29.9612 27.8747 30.0055 27.9686C30.0503 28.0635 30.074 28.1669 30.075 28.2718C30.0759 28.3767 30.0542 28.4806 30.0111 28.5763C29.9685 28.6712 29.9059 28.7557 29.8277 28.8243C28.933 29.7173 28.0376 30.6096 27.1416 31.5012C27.0173 31.6452 26.8422 31.7358 26.6527 31.754C26.4623 31.7723 26.2721 31.7161 26.1222 31.5972L26.1221 31.5971C26.04 31.5316 25.9733 31.4491 25.9263 31.3552C25.8794 31.2614 25.8535 31.1585 25.8503 31.0536C25.8471 30.9487 25.8668 30.8444 25.908 30.7479C25.9489 30.6521 26.01 30.5663 26.0871 30.4963C26.4271 30.151 26.7704 29.8088 27.1134 29.4669C27.2665 29.3144 27.4194 29.162 27.572 29.0093L27.625 29.0623L27.572 29.0093C27.5722 29.009 27.5725 29.0088 27.5728 29.0085H27.4946C24.1054 29.0085 20.7162 29.0082 17.327 29.0076C16.5657 29.0214 15.8225 28.7742 15.2211 28.3071C14.6196 27.8399 14.1962 27.1809 14.0213 26.4397L26.002 25.0826ZM26.002 25.0826C25.8891 25.2285 25.8362 25.412 25.8542 25.5957C25.8721 25.7784 25.9588 25.9474 26.0967 26.0685C26.4634 26.4376 26.8318 26.8052 27.2137 27.1864C27.334 27.3065 27.4557 27.4279 27.5791 27.5512L27.4892 27.5512C24.3379 27.5512 21.1867 27.5512 18.0354 27.5511C17.9558 27.5511 17.8768 27.5517 17.7981 27.5524C17.6048 27.5541 17.4138 27.5557 17.2222 27.5472L17.2222 27.5471L17.2203 27.5471C16.9215 27.5413 16.6286 27.4635 16.3665 27.3201C16.1043 27.1768 15.8807 26.9722 15.7146 26.7238L15.7144 26.7235C15.4859 26.3845 15.3703 25.9819 15.3842 25.5733L15.3842 25.5709C15.3858 24.6599 15.3857 23.749 15.3838 22.838C15.3966 22.6796 15.3582 22.5212 15.2741 22.3863C15.1894 22.2504 15.063 22.1456 14.9137 22.0876L14.9137 22.0875L14.9126 22.0871C14.7982 22.0447 14.675 22.0316 14.5542 22.049C14.4334 22.0663 14.3189 22.1137 14.2211 22.1867C14.1233 22.2596 14.0453 22.3559 13.9942 22.4668C13.9436 22.5768 13.921 22.6976 13.9286 22.8184C13.9227 23.7775 13.9249 24.7365 13.9293 25.6952L26.002 25.0826Z" fill="#CCCCCC" stroke="#CCCCCC" stroke-width="0.15"/>
<path id="Vector_2" d="M26.8125 15.6864L26.8126 15.6864C27.6192 15.6972 28.3925 16.0097 28.9801 16.5623C29.5677 17.1149 29.9271 17.8675 29.9875 18.6719C30.041 19.3807 30.0311 20.0942 30.0212 20.8037C30.0163 21.1572 30.0114 21.5097 30.0144 21.8602L29.9394 21.8608M26.8125 15.6864L16.3507 17.1027C16.3491 17.1015 16.3475 17.1002 16.3461 17.099C16.329 17.0854 16.3166 17.0751 16.3073 17.0649C16.2983 17.0551 16.2965 17.0499 16.2962 17.0487C16.2962 17.0485 16.2961 17.0483 16.2961 17.0481C16.2961 17.0478 16.2961 17.0473 16.2962 17.0468C16.2963 17.0455 16.297 17.0424 16.2995 17.0371C16.2998 17.0364 16.3001 17.0359 16.3003 17.0356C16.3024 17.0347 16.3087 17.0328 16.3232 17.0325C16.3358 17.0323 16.3489 17.0332 16.3659 17.0344C16.3692 17.0346 16.3725 17.0349 16.376 17.0351C16.3953 17.0364 16.42 17.0379 16.4444 17.0355C16.4549 17.0349 16.4654 17.0349 16.4759 17.0354L16.4759 17.0355L16.4794 17.0355C19.897 17.0345 23.3147 17.0347 26.7323 17.0363L26.7328 17.0363C26.9788 17.0346 27.2227 17.0815 27.4504 17.1745C27.6781 17.2675 27.8852 17.4047 28.0596 17.5781L28.0602 17.5786C28.2605 17.7737 28.4179 18.0086 28.5222 18.268C28.6266 18.5275 28.6757 18.8058 28.6664 19.0853L28.6663 19.0853L28.6663 19.0882C28.6692 19.7015 28.6686 20.3147 28.6681 20.9281C28.6678 21.2259 28.6675 21.5238 28.6676 21.8218C28.6614 21.9116 28.6732 22.0017 28.7024 22.0869C28.7319 22.1729 28.7785 22.2521 28.8394 22.3197C28.9003 22.3873 28.9743 22.4418 29.0568 22.48C29.1394 22.5183 29.2288 22.5394 29.3197 22.5422C29.4107 22.5449 29.5012 22.5293 29.5859 22.4961C29.6706 22.463 29.7478 22.413 29.8127 22.3493C29.8776 22.2855 29.9289 22.2093 29.9636 22.1252C29.9982 22.0411 30.0155 21.9509 30.0144 21.8599L29.9394 21.8608M26.8125 15.6864C25.623 15.6714 24.433 15.675 23.2436 15.6785C22.7489 15.68 22.2544 15.6814 21.76 15.6816L21.76 15.6774L21.6852 15.6775C19.9492 15.6784 18.2132 15.6779 16.4772 15.676C16.4573 15.676 16.436 15.678 16.4185 15.6796C16.4154 15.6799 16.4125 15.6801 16.4097 15.6804C16.3887 15.6822 16.3728 15.6832 16.3594 15.6822C16.3464 15.6812 16.3408 15.6787 16.3387 15.6774L16.3386 15.6773C16.3377 15.6768 16.3343 15.6746 16.3304 15.6646L16.3304 15.6646C16.329 15.661 16.3289 15.6591 16.3289 15.6587L16.329 15.6579C16.3294 15.6566 16.3315 15.6517 16.3403 15.6425C16.3492 15.6332 16.3607 15.6237 16.3766 15.611C16.3777 15.6102 16.3788 15.6093 16.3799 15.6084C16.3937 15.5974 16.4112 15.5835 16.4261 15.5685L16.4261 15.5685C16.6373 15.3565 16.8496 15.1446 17.062 14.9326C17.3162 14.6789 17.5706 14.4251 17.8232 14.1706C17.8957 14.1139 17.9564 14.0435 18.0018 13.9634C18.0481 13.8818 18.0776 13.7918 18.0886 13.6986C18.0996 13.6055 18.092 13.5111 18.066 13.4209C18.04 13.3308 17.9963 13.2468 17.9375 13.1737L17.9375 13.1737L17.9364 13.1724C17.8707 13.0947 17.7889 13.0323 17.6966 12.9895C17.6043 12.9468 17.5038 12.9247 17.4021 12.9248C17.3004 12.925 17.1999 12.9474 17.1078 12.9904C17.0166 13.033 16.9358 13.0947 16.8707 13.1714C15.9799 14.0593 15.0902 14.9484 14.2017 15.8387C14.1298 15.9038 14.0723 15.9832 14.0329 16.0718C13.9932 16.161 13.9728 16.2576 13.9729 16.3553C13.9729 16.453 13.9936 16.5495 14.0334 16.6387M26.8125 15.6864L14.0334 16.6387M29.9394 21.8608C29.9404 21.9417 29.925 22.0219 29.8942 22.0966C29.8634 22.1714 29.8178 22.2391 29.7601 22.2958C29.7024 22.3524 29.6339 22.3968 29.5586 22.4263C29.4833 22.4558 29.4028 22.4697 29.322 22.4672C29.2412 22.4648 29.1617 22.446 29.0884 22.412C29.015 22.378 28.9493 22.3295 28.8951 22.2695C28.841 22.2094 28.7996 22.139 28.7734 22.0625C28.7472 21.9861 28.7367 21.9051 28.7426 21.8244L28.9287 16.6169C29.5027 17.1567 29.8538 17.8918 29.9127 18.6775C29.966 19.3831 29.9561 20.0906 29.9463 20.798C29.9413 21.1524 29.9364 21.5067 29.9394 21.8608ZM14.0334 16.6387C14.073 16.7273 14.1306 16.8066 14.2026 16.8715C15.1015 17.7715 16.0014 18.6706 16.9023 19.5687C16.9648 19.635 17.0398 19.6882 17.1231 19.7253C17.2067 19.7626 17.2969 19.7828 17.3884 19.7848C17.48 19.7869 17.571 19.7706 17.6562 19.7371C17.7409 19.7038 17.8181 19.654 17.8835 19.5907C17.9521 19.5291 18.0068 19.4535 18.0438 19.3689C18.081 19.2839 18.0994 19.1919 18.0978 19.0991C18.0962 19.0063 18.0746 18.9149 18.0345 18.8312C17.995 18.7486 17.9383 18.6754 17.8682 18.6163C17.6623 18.4096 17.4561 18.2035 17.25 17.9975C16.966 17.7136 16.6821 17.4298 16.399 17.1445L14.0334 16.6387Z" fill="#CCCCCC" stroke="#CCCCCC" stroke-width="0.15"/>
</g>
</g>
</svg>
